<?xml version="1.0" encoding="UTF-8"?>
<svg version="1.1" xmlns="http://www.w3.org/2000/svg" width="105" height="57">
<path d="M0 0 C6.27 0 12.54 0 19 0 C19 6.93 19 13.86 19 21 C24.61 21 30.22 21 36 21 C36 14.07 36 7.14 36 0 C42.27 0 48.54 0 55 0 C55.0811135 3.87542277 55.1405605 7.74913882 55.1875 11.625 C55.21263672 12.71941406 55.23777344 13.81382813 55.26367188 14.94140625 C55.35667542 25.17179626 55.35667542 25.17179626 52 30 C47.03442821 34.48112576 43.88370791 35.17283807 37.359375 35.23828125 C36.59957336 35.246353 35.83977173 35.25442474 35.0569458 35.26274109 C33.44635295 35.27658138 31.83573078 35.28730379 30.22509766 35.29516602 C27.7731889 35.3123376 25.3226434 35.35621634 22.87109375 35.40039062 C21.3046974 35.41052156 19.73828959 35.41903641 18.171875 35.42578125 C17.44353455 35.44328934 16.71519409 35.46079742 15.96478271 35.47883606 C10.82192847 35.45715058 7.97746907 34.20100442 4 31 C0.06852883 26.79739288 -0.13020337 22.2647759 -0.09765625 16.69921875 C-0.09443359 15.72275391 -0.09121094 14.74628906 -0.08789062 13.74023438 C-0.07951172 12.73283203 -0.07113281 11.72542969 -0.0625 10.6875 C-0.05798828 9.66076172 -0.05347656 8.63402344 -0.04882812 7.57617188 C-0.03708201 5.05075612 -0.01914771 2.52537048 0 0 Z " fill="#1A1A19" transform="translate(23,22)"/>
<path d="M0 0 C18.15 0 36.3 0 55 0 C55 5.61 55 11.22 55 17 C36.85 17 18.7 17 0 17 C0 11.39 0 5.78 0 0 Z " fill="#1A1A19" transform="translate(23,3)"/>
</svg>
